<svg xmlns="http://www.w3.org/2000/svg" viewBox="0 0 340 640" width="100%" height="100%">
  <defs>
    <linearGradient id="bodyGradNat" x1="0%" y1="0%" x2="100%" y2="100%">
      <stop offset="0%" stop-color="#C5C2BA" />
      <stop offset="35%" stop-color="#ABA79E" />
      <stop offset="70%" stop-color="#969288" />
      <stop offset="100%" stop-color="#7B776E" />
    </linearGradient>
    <linearGradient id="edgeGradNat" x1="0%" y1="0%" x2="100%" y2="0%">
      <stop offset="0%" stop-color="#E2DFD8" />
      <stop offset="50%" stop-color="#A5A198" />
      <stop offset="100%" stop-color="#67635A" />
    </linearGradient>
    <linearGradient id="cameraPlateauNat" x1="0%" y1="0%" x2="100%" y2="100%">
      <stop offset="0%" stop-color="#D4D1C9" stop-opacity="0.95" />
      <stop offset="100%" stop-color="#938F86" stop-opacity="0.95" />
    </linearGradient>
    <linearGradient id="lensGlass" x1="0%" y1="0%" x2="100%" y2="100%">
      <stop offset="0%" stop-color="#1E293B" /><stop offset="60%" stop-color="#0F172A" /><stop offset="100%" stop-color="#020617" />
    </linearGradient>
    <radialGradient id="lensReflect" cx="30%" cy="30%" r="70%">
      <stop offset="0%" stop-color="#38BDF8" stop-opacity="0.7" />
      <stop offset="50%" stop-color="#0284C7" stop-opacity="0.2" />
      <stop offset="100%" stop-color="#030712" stop-opacity="0.9" />
    </radialGradient>
    <filter id="phoneShadow" x="-10%" y="-10%" width="130%" height="130%">
      <feDropShadow dx="0" dy="16" stdDeviation="20" flood-color="#3F3F46" flood-opacity="0.25"/>
    </filter>
    <filter id="bumpShadow" x="-20%" y="-20%" width="140%" height="140%">
      <feDropShadow dx="2" dy="4" stdDeviation="6" flood-color="#27272A" flood-opacity="0.35"/>
    </filter>
  </defs>
  <rect x="25" y="20" width="290" height="590" rx="46" fill="url(#edgeGradNat)" filter="url(#phoneShadow)" />
  <rect x="29" y="24" width="282" height="582" rx="42" fill="url(#bodyGradNat)" />
  <path d="M29 24 Q 170 120 311 24 L 311 180 Q 170 100 29 200 Z" fill="#FFFFFF" fill-opacity="0.08" />
  <rect x="42" y="38" width="138" height="146" rx="34" fill="url(#cameraPlateauNat)" filter="url(#bumpShadow)" stroke="#E4E2DC" stroke-width="1.5" stroke-opacity="0.6"/>
  <circle cx="82" cy="78" r="26" fill="#78746B" stroke="#EDEDE8" stroke-width="2"/>
  <circle cx="82" cy="78" r="22" fill="url(#lensGlass)"/>
  <circle cx="82" cy="78" r="18" fill="url(#lensReflect)"/>
  <circle cx="76" cy="72" r="6" fill="#FFFFFF" fill-opacity="0.45"/>
  <circle cx="82" cy="144" r="26" fill="#78746B" stroke="#EDEDE8" stroke-width="2"/>
  <circle cx="82" cy="144" r="22" fill="url(#lensGlass)"/>
  <circle cx="82" cy="144" r="18" fill="url(#lensReflect)"/>
  <circle cx="76" cy="138" r="6" fill="#FFFFFF" fill-opacity="0.45"/>
  <circle cx="140" cy="111" r="26" fill="#78746B" stroke="#EDEDE8" stroke-width="2"/>
  <circle cx="140" cy="111" r="22" fill="url(#lensGlass)"/>
  <circle cx="140" cy="111" r="18" fill="url(#lensReflect)"/>
  <circle cx="134" cy="105" r="6" fill="#FFFFFF" fill-opacity="0.45"/>
  <circle cx="140" cy="65" r="10" fill="#FFFBEB" stroke="#FCD34D" stroke-width="1.5"/>
  <circle cx="140" cy="65" r="5" fill="#FDE68A"/>
  <circle cx="140" cy="155" r="8" fill="#18181B" stroke="#3F3F46" stroke-width="1.5"/>
  <g transform="translate(150, 305) scale(0.65)" opacity="0.35">
    <path d="M22 0C25 4 21 9 17 9C14 9 13 6 15 2C17 -1 20 -1 22 0Z" fill="#FFFFFF"/>
    <path d="M30 18C30 14 34 11 36 10C32 5 26 5 24 6C19 6 16 8 13 8C10 8 7 6 3 6C-3 7 -8 15 -8 24C-8 32 -3 43 2 49C5 53 8 57 12 57C16 57 17 54 22 54C26 54 27 57 32 57C36 57 39 53 42 49C44 46 45 44 46 41C37 38 30 29 30 18Z" fill="#FFFFFF"/>
  </g>
</svg>
